<svg xmlns="http://www.w3.org/2000/svg" viewBox="0 0 216 216">
    <defs>
        <!-- Gradient Definitions -->
        <radialGradient id="snoo-main-gradient" cx="50%" cy="50%" r="50%">
            <stop offset="0%" stop-color="#feffff"/>
            <stop offset="80%" stop-color="#d8dbe2"/>
            <stop offset="100%" stop-color="#bfcdd6"/>
        </radialGradient>

        <radialGradient id="snoo-dark-gradient" cx="50%" cy="50%" r="50%">
            <stop offset="0%" stop-color="#172e35"/>
            <stop offset="100%" stop-color="#000"/>
        </radialGradient>
    </defs>

    <!-- Speech bubble -->
    <path fill="#FF4500" d="M108,0 C48.35,0,0,48.35,0,108 c0,29.82,12.09,56.82,31.63,76.37l-20.57,20.57 c-4.08,4.08-1.19,11.06,4.58,11.06h92.36 c59.65,0,108-48.35,108-108 C216,48.35,167.65,0,108,0 Z"/>

    <!-- Cat ears -->
    <path fill="url(#snoo-main-gradient)" d="M153,75 Q163,65 173,75 Q183,85 183,100 Q183,115 173,120 Q163,125 153,120 Q143,115 143,100 Q143,85 153,75 Z"/>
    <path fill="url(#snoo-main-gradient)" d="M67,75 Q57,65 47,75 Q37,85 37,100 Q37,115 47,120 Q57,125 67,120 Q77,115 77,100 Q77,85 67,75 Z"/>

    <!-- Head -->
    <ellipse cx="108.06" cy="128.64" rx="72" ry="54" fill="url(#snoo-main-gradient)"/>

    <!-- Eyes -->
    <path fill="#FF4500" d="M86.78,123.48c-.42,9.08-6.49,12.38-13.56,12.38s-12.46-4.93-12.04-14.01 c.42-9.08,6.49-15.02,13.56-15.02s12.46,7.58,12.04,16.66Z"/>
    <path fill="#FF4500" d="M129.35,123.48c.42,9.08,6.49,12.38,13.56,12.38s12.46-4.93,12.04-14.01 c-.42-9.08-6.49-15.02-13.56-15.02s-12.46,7.58-12.04,16.66Z"/>

    <!-- Pupils -->
    <ellipse cx="79.63" cy="116.37" rx="2.8" ry="3.05" fill="#c1c1c1a7"/>
    <ellipse cx="146.21" cy="116.37" rx="2.8" ry="3.05" fill="#c1c1c1a7"/>

    <!-- Mouth -->
    <path fill="url(#snoo-dark-gradient)" d="M92.25,133h32.5c1.07,0,1.95,0.88,1.95,1.95v6.5c0,9.75-7.8,17.55-18.2,17.55s-18.2-7.8-18.2-17.55v-6.5 c0-1.07,0.88-1.95,1.95-1.95Z"/>
</svg>
